<?xml version="1.0" encoding="iso-8859-1"?>
<!-- Generator: Adobe Illustrator 19.0.0, SVG Export Plug-In . SVG Version: 6.00 Build 0)  -->
<svg version="1.1" id="Capa_1" xmlns="http://www.w3.org/2000/svg" xmlns:xlink="http://www.w3.org/1999/xlink" x="0px" y="0px"
	 viewBox="0 0 512 512" style="enable-background:new 0 0 512 512;" xml:space="preserve">
<g>
	<g>
		<path d="M508.875,408.463c-4.167-4.167-10.917-4.167-15.083,0l-12.249,12.249c-32.221-47.043-163.68-238.612-212.195-303.4
			l27.184-36.245c3.542-4.708,2.583-11.396-2.135-14.927c-4.708-3.531-11.396-2.573-14.927,2.135L256,99.568l-23.469-31.292
			c-3.531-4.729-10.229-5.688-14.927-2.135c-4.719,3.531-5.677,10.219-2.135,14.927l27.184,36.245
			C194.137,182.1,62.678,373.669,30.457,420.712l-12.249-12.249c-4.167-4.167-10.917-4.167-15.083,0
			c-4.167,4.167-4.167,10.917,0,15.083l21.333,21.333c0.418,0.418,2.204,1.53,2.663,1.768c1.544,0.807,3.18,1.357,4.879,1.357h448
			c1.699,0,3.335-0.549,4.879-1.357c0.458-0.238,2.245-1.35,2.663-1.768l21.333-21.333
			C513.042,419.38,513.042,412.63,508.875,408.463z M132.526,426.672C191.647,382.721,236.52,279.113,256,195.439
			c19.48,83.674,64.353,187.283,123.474,231.233H132.526z"/>
	</g>
</g>
<g>
</g>
<g>
</g>
<g>
</g>
<g>
</g>
<g>
</g>
<g>
</g>
<g>
</g>
<g>
</g>
<g>
</g>
<g>
</g>
<g>
</g>
<g>
</g>
<g>
</g>
<g>
</g>
<g>
</g>
</svg>
