<?xml version="1.0" encoding="utf-8"?>
<!-- Generator: Adobe Illustrator 14.0.0, SVG Export Plug-In . SVG Version: 6.00 Build 43363)  -->
<!DOCTYPE svg PUBLIC "-//W3C//DTD SVG 1.1//EN" "http://www.w3.org/Graphics/SVG/1.1/DTD/svg11.dtd">
<svg version="1.1" id="Calque_1" xmlns="http://www.w3.org/2000/svg" xmlns:xlink="http://www.w3.org/1999/xlink" x="0px" y="0px"
	 width="1417.32px" height="581.1px" viewBox="0 0 1417.32 581.1" enable-background="new 0 0 1417.32 581.1" xml:space="preserve">
<path id="e" fill="#E53238" d="M183.268,131.242c-99.966,0-183.269,42.412-183.269,170.365c0,101.37,56.015,165.201,185.852,165.201
	c152.824,0,162.621-100.668,162.621-100.668h-74.051c0,0-15.877,54.205-93.087,54.205c-62.887,0-108.115-42.483-108.115-102.021
	h282.995v-37.368C356.214,222.049,318.818,131.242,183.268,131.242z M180.688,178.998c59.86,0,100.67,36.671,100.67,91.633H74.855
	C74.855,212.283,128.121,178.998,180.688,178.998z"/>
<path id="b" fill="#0064D2" d="M356.161,7.343v395.21c0,22.433-1.6,53.933-1.6,53.933h70.629c0,0,2.535-22.621,2.535-43.3
	c0,0,34.894,54.593,129.777,54.593c99.914,0,167.782-69.371,167.782-168.752c0-92.455-62.34-166.814-167.62-166.814
	c-98.591,0-129.226,53.238-129.226,53.238V7.343H356.161z M539.432,181.094c67.85,0,110.996,50.357,110.996,117.932
	c0,72.465-49.831,119.87-110.511,119.87c-72.416,0-111.479-56.546-111.479-119.224C428.438,241.267,463.491,181.094,539.432,181.094
	z"/>
<path id="a" fill="#F5AF02" d="M900.809,131.242c-150.391,0-160.035,82.35-160.035,95.509h74.855c0,0,3.925-48.077,80.018-48.077
	c49.451,0,87.766,22.631,87.766,66.145v15.489h-87.766c-116.508,0-178.104,34.083-178.104,103.251
	c0,68.069,56.911,105.105,133.821,105.105c104.818,0,138.586-57.917,138.586-57.917c0,23.032,1.772,45.737,1.772,45.737h66.546
	c0,0-2.581-28.139-2.581-46.14V254.741c0-102.026-82.293-123.496-154.878-123.496V131.242z M983.412,306.773v20.646
	c0,26.935-16.621,93.896-114.464,93.896c-53.577,0-76.55-26.74-76.55-57.756C792.398,307.134,869.756,306.773,983.412,306.773z"/>
<path id="y" fill="#86B817" d="M1015.378,144.163h84.214l120.862,242.13l120.581-242.13h76.287L1197.68,575.238h-80.018
	l63.379-120.17L1015.378,144.163z"/>
</svg>
